<?xml version="1.0" standalone="no"?>
<!DOCTYPE svg PUBLIC "-//W3C//DTD SVG 20010904//EN"
 "http://www.w3.org/TR/2001/REC-SVG-20010904/DTD/svg10.dtd">
<svg version="1.0" xmlns="http://www.w3.org/2000/svg"
 width="266.000000pt" height="266.000000pt" viewBox="0 0 266.000000 266.000000"
 preserveAspectRatio="xMidYMid meet">

<g transform="translate(0.000000,266.000000) scale(0.100000,-0.100000)"
fill="#000000" stroke="none">
<path d="M1179 2489 c-341 -36 -639 -220 -836 -517 -124 -186 -183 -388 -183
-628 0 -199 36 -357 117 -518 61 -122 112 -195 202 -288 100 -105 183 -167
316 -233 666 -333 1462 27 1645 743 107 419 -22 851 -341 1146 -250 232 -566
333 -920 295z m401 -194 c339 -91 603 -356 697 -700 24 -88 27 -118 27 -250 0
-168 -18 -265 -76 -403 -63 -153 -216 -339 -343 -420 -105 -67 -237 -132 -267
-132 -5 0 -8 89 -8 198 0 110 -5 214 -11 236 -6 21 -30 60 -55 86 l-44 47 68
7 c263 26 396 145 422 378 17 148 -13 275 -83 355 -17 19 -18 28 -8 90 11 74
2 142 -25 194 -15 31 -17 31 -66 26 -53 -7 -151 -48 -213 -90 -33 -22 -40 -24
-78 -14 -56 14 -350 14 -406 -1 -43 -10 -47 -9 -92 24 -70 51 -149 84 -210 87
l-53 2 -17 -45 c-19 -47 -24 -177 -10 -215 6 -14 0 -30 -20 -58 -47 -65 -71
-142 -76 -247 -11 -206 56 -338 207 -415 55 -28 196 -65 248 -65 39 0 40 -5 3
-36 -16 -13 -38 -44 -49 -68 -20 -42 -23 -44 -87 -56 -103 -19 -159 8 -242
121 -24 32 -57 63 -77 73 -38 18 -97 18 -103 1 -2 -6 19 -28 47 -49 38 -29 60
-58 91 -117 69 -132 137 -173 276 -168 l74 4 2 -143 c2 -114 -1 -142 -11 -142
-8 0 -50 16 -94 35 -430 186 -672 654 -577 1118 37 184 114 330 243 465 96
101 157 147 268 206 104 54 217 89 353 110 78 12 282 -4 375 -29z"/>
</g>
</svg>
